<svg width="200" height="200" viewBox="0 0 200 200" fill="none" xmlns="http://www.w3.org/2000/svg">
    <defs>
        <linearGradient id="shieldGradient" x1="50" y1="10" x2="150" y2="190" gradientUnits="userSpaceOnUse">
            <stop stop-color="#3a79f0"/>
            <stop offset="1" stop-color="#1c213e"/>
        </linearGradient>
        <linearGradient id="brainGradient" x1="100" y1="50" x2="100" y2="150" gradientUnits="userSpaceOnUse">
            <stop stop-color="#f0f8ff" stop-opacity="0.8"/>
            <stop offset="1" stop-color="#3a79f0" stop-opacity="0.6"/>
        </linearGradient>
    </defs>

    <path d="M100 10L190 50V110C190 160 150 185 100 190C50 185 10 160 10 110V50L100 10Z" fill="url(#shieldGradient)" stroke="#f0f8ff" stroke-width="4"/>

    <circle cx="100" cy="90" r="15" fill="url(#brainGradient)"/>

    <path d="M100 105 V 130" stroke="#a9b3c9" stroke-width="3"/>
    <path d="M100 75 V 60" stroke="#a9b3c9" stroke-width="3"/>
    <path d="M88 95 L 60 75" stroke="#a9b3c9" stroke-width="3"/>
    <path d="M112 95 L 140 75" stroke="#a9b3c9" stroke-width="3"/>
    <path d="M88 85 L 60 105" stroke="#a9b3c9" stroke-width="3"/>
    <path d="M112 85 L 140 105" stroke="#a9b3c9" stroke-width="3"/>

    <circle cx="60" cy="75" r="7" fill="#f0f8ff"/>
    <circle cx="140" cy="75" r="7" fill="#f0f8ff"/>
    <circle cx="60" cy="105" r="7" fill="#f0f8ff"/>
    <circle cx="140" cy="105" r="7" fill="#f0f8ff"/>
    <circle cx="100" cy="130" r="7" fill="#f0f8ff"/>
    <circle cx="100" cy="60" r="7" fill="#f0f8ff"/>
</svg>